<svg xmlns="http://www.w3.org/2000/svg" xmlns:xlink="http://www.w3.org/1999/xlink" width="1080" zoomAndPan="magnify" viewBox="0 0 810 809.999993" height="1080" preserveAspectRatio="xMidYMid meet" version="1.0"><defs><g/></defs><rect x="-81" width="972" fill="#ffffff" y="-80.999999" height="971.999992" fill-opacity="1"/><rect x="-81" width="972" fill="#ffffff" y="-80.999999" height="971.999992" fill-opacity="1"/><rect x="-81" width="972" fill="#ffffff" y="-80.999999" height="971.999992" fill-opacity="1"/><rect x="-81" width="972" fill="#ffffff" y="-80.999999" height="971.999992" fill-opacity="1"/><g fill="#004aad" fill-opacity="1"><g transform="translate(43.859566, 770.404662)"><g><path d="M 80.71875 0 L 0 0 L 0 -727.96875 L 161.9375 -727.96875 L 161.9375 -646.734375 L 80.71875 -646.734375 L 80.71875 -242.65625 L 161.9375 -242.65625 L 161.9375 -161.4375 L 80.71875 -161.4375 Z M 80.71875 0 "/></g></g></g><g fill="#004aad" fill-opacity="1"><g transform="translate(286.504117, 770.404662)"><g><path d="M 80.71875 0 L 0 0 L 0 -727.96875 L 161.9375 -727.96875 L 161.9375 -646.734375 L 80.71875 -646.734375 L 80.71875 -242.65625 L 161.9375 -242.65625 L 161.9375 -161.4375 L 80.71875 -161.4375 Z M 80.71875 0 "/></g></g></g><g fill="#004aad" fill-opacity="1"><g transform="translate(529.148667, 770.404662)"><g><path d="M 161.9375 0 L 80.71875 0 L 80.71875 -646.734375 L 0 -646.734375 L 0 -727.96875 L 242.65625 -727.96875 L 242.65625 -646.734375 L 161.9375 -646.734375 Z M 161.9375 0 "/></g></g></g></svg>