<svg xmlns="http://www.w3.org/2000/svg" xmlns:xlink="http://www.w3.org/1999/xlink" width="400" zoomAndPan="magnify" viewBox="0 0 300 135.000003" height="180" preserveAspectRatio="xMidYMid meet" version="1.0"><defs><g/><clipPath id="7e96938d36"><path d="M 1.101562 0 L 298.894531 0 L 298.894531 134.007812 L 1.101562 134.007812 Z M 1.101562 0 " clip-rule="nonzero"/></clipPath></defs><g clip-path="url(#7e96938d36)"><path fill="#ffffff" d="M 1.101562 0 L 298.898438 0 L 298.898438 141.453125 L 1.101562 141.453125 Z M 1.101562 0 " fill-opacity="1" fill-rule="nonzero"/><path fill="#ffffff" d="M 1.101562 0 L 298.898438 0 L 298.898438 134.007812 L 1.101562 134.007812 Z M 1.101562 0 " fill-opacity="1" fill-rule="nonzero"/><path fill="#000000" d="M 1.101562 0 L 298.898438 0 L 298.898438 134.007812 L 1.101562 134.007812 Z M 1.101562 0 " fill-opacity="1" fill-rule="nonzero"/><path fill="#ffffff" d="M -12.058594 -2.574219 L 299.734375 -2.574219 L 299.734375 146.460938 L -12.058594 146.460938 L -12.058594 -2.574219 " fill-opacity="1" fill-rule="nonzero"/></g><g fill="#004aad" fill-opacity="1"><g transform="translate(10.306725, 116.653263)"><g><path d="M 11.125 0 L 0 0 L 0 -100.375 L 22.328125 -100.375 L 22.328125 -89.171875 L 11.125 -89.171875 L 11.125 -33.453125 L 22.328125 -33.453125 L 22.328125 -22.265625 L 11.125 -22.265625 Z M 11.125 0 "/></g></g></g><g fill="#004aad" fill-opacity="1"><g transform="translate(43.761213, 116.653263)"><g><path d="M 11.125 0 L 0 0 L 0 -100.375 L 22.328125 -100.375 L 22.328125 -89.171875 L 11.125 -89.171875 L 11.125 -33.453125 L 22.328125 -33.453125 L 22.328125 -22.265625 L 11.125 -22.265625 Z M 11.125 0 "/></g></g></g><g fill="#004aad" fill-opacity="1"><g transform="translate(77.215701, 116.653263)"><g><path d="M 22.328125 0 L 11.125 0 L 11.125 -89.171875 L 0 -89.171875 L 0 -100.375 L 33.453125 -100.375 L 33.453125 -89.171875 L 22.328125 -89.171875 Z M 22.328125 0 "/></g></g></g><g fill="#004aad" fill-opacity="1"><g transform="translate(121.798495, 116.653263)"><g><path d="M 22.328125 0 L 0 0 L 0 -100.375 L 22.328125 -100.375 L 22.328125 -89.171875 L 11.125 -89.171875 L 11.125 -33.453125 L 22.328125 -33.453125 L 22.328125 -22.265625 L 11.125 -22.265625 L 11.125 -11.125 L 22.328125 -11.125 Z M 22.328125 0 "/></g></g></g><g fill="#004aad" fill-opacity="1"><g transform="translate(155.252983, 116.653263)"><g><path d="M 33.453125 0 L 0 0 L 0 -100.375 L 33.453125 -100.375 L 33.453125 -44.59375 L 22.328125 -44.59375 L 22.328125 -89.171875 L 11.125 -89.171875 L 11.125 -11.125 L 22.328125 -11.125 L 22.328125 -33.453125 L 33.453125 -33.453125 Z M 33.453125 0 "/></g></g></g><g fill="#004aad" fill-opacity="1"><g transform="translate(199.835777, 116.653263)"><g><path d="M 33.453125 0 L 22.328125 0 L 22.328125 -22.265625 L 11.125 -22.265625 L 11.125 0 L 0 0 L 0 -100.375 L 11.125 -100.375 L 11.125 -33.453125 L 22.328125 -33.453125 L 22.328125 -100.375 L 33.453125 -100.375 Z M 33.453125 0 "/></g></g></g><g fill="#004aad" fill-opacity="1"><g transform="translate(244.418572, 116.653263)"><g><path d="M 11.125 0 L 0 0 L 0 -100.375 L 11.125 -100.375 Z M 11.125 0 "/></g></g></g><g fill="#004aad" fill-opacity="1"><g transform="translate(266.675187, 116.653263)"><g><path d="M 22.328125 0 L 0 0 L 0 -100.375 L 22.328125 -100.375 L 22.328125 -89.171875 L 11.125 -89.171875 L 11.125 -33.453125 L 22.328125 -33.453125 L 22.328125 -22.265625 L 11.125 -22.265625 L 11.125 -11.125 L 22.328125 -11.125 Z M 22.328125 0 "/></g></g></g></svg>