<svg xmlns="http://www.w3.org/2000/svg" xmlns:xlink="http://www.w3.org/1999/xlink" width="1640" zoomAndPan="magnify" viewBox="0 0 1230 172.499995" height="230" preserveAspectRatio="xMidYMid meet" version="1.0"><defs><g/><clipPath id="a08d1bd077"><path d="M 1.777344 0 L 1228.222656 0 L 1228.222656 172 L 1.777344 172 Z M 1.777344 0 " clip-rule="nonzero"/></clipPath></defs><g clip-path="url(#a08d1bd077)"><path fill="#ffffff" d="M 1.777344 0 L 1228.222656 0 L 1228.222656 178.730469 L 1.777344 178.730469 Z M 1.777344 0 " fill-opacity="1" fill-rule="nonzero"/><path fill="#ffffff" d="M 1.777344 0 L 1228.222656 0 L 1228.222656 172 L 1.777344 172 Z M 1.777344 0 " fill-opacity="1" fill-rule="nonzero"/><path fill="#b81424" d="M 1.777344 0 L 1228.222656 0 L 1228.222656 172 L 1.777344 172 Z M 1.777344 0 " fill-opacity="1" fill-rule="nonzero"/></g><g fill="#ffffff" fill-opacity="1"><g transform="translate(17.627065, 157.239694)"><g><path d="M 15.46875 0 L 0 0 L 0 -139.578125 L 31.046875 -139.578125 L 31.046875 -124 L 15.46875 -124 L 15.46875 -46.53125 L 31.046875 -46.53125 L 31.046875 -30.953125 L 15.46875 -30.953125 Z M 15.46875 0 "/></g></g></g><g fill="#ffffff" fill-opacity="1"><g transform="translate(64.14819, 157.239694)"><g><path d="M 46.53125 0 L 31.046875 0 L 31.046875 -30.953125 L 15.46875 -30.953125 L 15.46875 0 L 0 0 L 0 -139.578125 L 46.53125 -139.578125 Z M 31.046875 -46.53125 L 31.046875 -124 L 15.46875 -124 L 15.46875 -46.53125 Z M 31.046875 -46.53125 "/></g></g></g><g fill="#ffffff" fill-opacity="1"><g transform="translate(126.144118, 157.239694)"><g><path d="M 46.53125 0 L 0 0 L 0 -15.46875 L 31.046875 -15.46875 L 31.046875 -30.953125 L 0 -30.953125 L 0 -139.578125 L 46.53125 -139.578125 L 46.53125 -62 L 31.046875 -62 L 31.046875 -124 L 15.46875 -124 L 15.46875 -46.53125 L 46.53125 -46.53125 Z M 46.53125 0 "/></g></g></g><g fill="#ffffff" fill-opacity="1"><g transform="translate(188.140045, 157.239694)"><g><path d="M 46.53125 0 L 31.046875 0 L 31.046875 -30.953125 L 15.46875 -30.953125 L 15.46875 0 L 0 0 L 0 -139.578125 L 15.46875 -139.578125 L 15.46875 -46.53125 L 31.046875 -46.53125 L 31.046875 -139.578125 L 46.53125 -139.578125 Z M 46.53125 0 "/></g></g></g><g fill="#ffffff" fill-opacity="1"><g transform="translate(250.135973, 157.239694)"><g><path d="M 15.46875 0 L 0 0 L 0 -139.578125 L 15.46875 -139.578125 Z M 15.46875 0 "/></g></g></g><g fill="#ffffff" fill-opacity="1"><g transform="translate(281.085578, 157.239694)"><g><path d="M 46.53125 0 L 0 0 L 0 -139.578125 L 46.53125 -139.578125 Z M 31.046875 -15.46875 L 31.046875 -124 L 15.46875 -124 L 15.46875 -15.46875 Z M 31.046875 -15.46875 "/></g></g></g><g fill="#ffffff" fill-opacity="1"><g transform="translate(343.081506, 157.239694)"><g><path d="M 46.53125 0 L 31.046875 0 L 31.046875 -85.21875 L 15.46875 -100.78125 L 15.46875 0 L 0 0 L 0 -139.578125 L 15.46875 -139.578125 L 15.46875 -124 L 31.046875 -108.53125 L 31.046875 -139.578125 L 46.53125 -139.578125 Z M 46.53125 0 "/></g></g></g><g fill="#ffffff" fill-opacity="1"><g transform="translate(405.077433, 157.239694)"><g/></g></g><g fill="#ffffff" fill-opacity="1"><g transform="translate(436.123756, 157.239694)"><g><path d="M 15.46875 0 L 0 0 L 0 -139.578125 L 31.046875 -139.578125 L 31.046875 -124 L 15.46875 -124 L 15.46875 -46.53125 L 31.046875 -46.53125 L 31.046875 -30.953125 L 15.46875 -30.953125 Z M 15.46875 0 "/></g></g></g><g fill="#ffffff" fill-opacity="1"><g transform="translate(482.64488, 157.239694)"><g><path d="M 46.53125 0 L 0 0 L 0 -139.578125 L 46.53125 -139.578125 Z M 31.046875 -15.46875 L 31.046875 -124 L 15.46875 -124 L 15.46875 -15.46875 Z M 31.046875 -15.46875 "/></g></g></g><g fill="#ffffff" fill-opacity="1"><g transform="translate(544.640808, 157.239694)"><g><path d="M 46.53125 0 L 31.046875 0 L 31.046875 -23.21875 L 23.21875 -30.953125 L 15.46875 -30.953125 L 15.46875 0 L 0 0 L 0 -139.578125 L 46.53125 -139.578125 L 46.53125 -46.53125 L 38.78125 -38.78125 L 46.53125 -30.953125 Z M 23.21875 -46.53125 L 31.046875 -54.265625 L 31.046875 -124 L 15.46875 -124 L 15.46875 -46.53125 Z M 23.21875 -46.53125 "/></g></g></g><g fill="#ffffff" fill-opacity="1"><g transform="translate(606.636736, 157.239694)"><g><path d="M 77.484375 0 L 0 0 L 0 -139.578125 L 15.46875 -139.578125 L 15.46875 -15.46875 L 31.046875 -15.46875 L 31.046875 -139.578125 L 46.53125 -139.578125 L 46.53125 -15.46875 L 62 -15.46875 L 62 -139.578125 L 77.484375 -139.578125 Z M 77.484375 0 "/></g></g></g><g fill="#ffffff" fill-opacity="1"><g transform="translate(699.582266, 157.239694)"><g><path d="M 46.53125 0 L 31.046875 0 L 31.046875 -30.953125 L 15.46875 -30.953125 L 15.46875 0 L 0 0 L 0 -139.578125 L 46.53125 -139.578125 Z M 31.046875 -46.53125 L 31.046875 -124 L 15.46875 -124 L 15.46875 -46.53125 Z M 31.046875 -46.53125 "/></g></g></g><g fill="#ffffff" fill-opacity="1"><g transform="translate(761.578194, 157.239694)"><g><path d="M 46.53125 0 L 31.046875 0 L 31.046875 -23.21875 L 23.21875 -30.953125 L 15.46875 -30.953125 L 15.46875 0 L 0 0 L 0 -139.578125 L 46.53125 -139.578125 L 46.53125 -46.53125 L 38.78125 -38.78125 L 46.53125 -30.953125 Z M 23.21875 -46.53125 L 31.046875 -54.265625 L 31.046875 -124 L 15.46875 -124 L 15.46875 -46.53125 Z M 23.21875 -46.53125 "/></g></g></g><g fill="#ffffff" fill-opacity="1"><g transform="translate(823.574121, 157.239694)"><g><path d="M 31.046875 0 L 0 0 L 0 -139.578125 L 31.046875 -139.578125 L 46.53125 -124 L 46.53125 -15.46875 Z M 23.21875 -15.46875 L 31.046875 -23.21875 L 31.046875 -116.265625 L 23.21875 -124 L 15.46875 -124 L 15.46875 -15.46875 Z M 23.21875 -15.46875 "/></g></g></g><g fill="#ffffff" fill-opacity="1"><g transform="translate(885.570049, 157.239694)"><g/></g></g><g fill="#ffffff" fill-opacity="1"><g transform="translate(916.616371, 157.239694)"><g><path d="M 31.046875 0 L 15.46875 0 L 15.46875 -124 L 0 -124 L 0 -139.578125 L 46.53125 -139.578125 L 46.53125 -124 L 31.046875 -124 Z M 31.046875 0 "/></g></g></g><g fill="#ffffff" fill-opacity="1"><g transform="translate(978.612299, 157.239694)"><g><path d="M 31.046875 0 L 0 0 L 0 -139.578125 L 31.046875 -139.578125 L 31.046875 -124 L 15.46875 -124 L 15.46875 -46.53125 L 31.046875 -46.53125 L 31.046875 -30.953125 L 15.46875 -30.953125 L 15.46875 -15.46875 L 31.046875 -15.46875 Z M 31.046875 0 "/></g></g></g><g fill="#ffffff" fill-opacity="1"><g transform="translate(1025.133423, 157.239694)"><g><path d="M 46.53125 0 L 0 0 L 0 -139.578125 L 46.53125 -139.578125 L 46.53125 -62 L 31.046875 -62 L 31.046875 -124 L 15.46875 -124 L 15.46875 -15.46875 L 31.046875 -15.46875 L 31.046875 -46.53125 L 46.53125 -46.53125 Z M 46.53125 0 "/></g></g></g><g fill="#ffffff" fill-opacity="1"><g transform="translate(1087.129351, 157.239694)"><g><path d="M 46.53125 0 L 31.046875 0 L 31.046875 -30.953125 L 15.46875 -30.953125 L 15.46875 0 L 0 0 L 0 -139.578125 L 15.46875 -139.578125 L 15.46875 -46.53125 L 31.046875 -46.53125 L 31.046875 -139.578125 L 46.53125 -139.578125 Z M 46.53125 0 "/></g></g></g><g fill="#ffffff" fill-opacity="1"><g transform="translate(1149.125279, 157.239694)"><g><path d="M 15.46875 0 L 0 0 L 0 -139.578125 L 15.46875 -139.578125 Z M 15.46875 0 "/></g></g></g><g fill="#ffffff" fill-opacity="1"><g transform="translate(1180.074884, 157.239694)"><g><path d="M 31.046875 0 L 0 0 L 0 -139.578125 L 31.046875 -139.578125 L 31.046875 -124 L 15.46875 -124 L 15.46875 -46.53125 L 31.046875 -46.53125 L 31.046875 -30.953125 L 15.46875 -30.953125 L 15.46875 -15.46875 L 31.046875 -15.46875 Z M 31.046875 0 "/></g></g></g></svg>