<svg xmlns="http://www.w3.org/2000/svg" xmlns:xlink="http://www.w3.org/1999/xlink" width="400" zoomAndPan="magnify" viewBox="0 0 300 135.000003" height="180" preserveAspectRatio="xMidYMid meet" version="1.0"><defs><g/><clipPath id="5b12699dc8"><path d="M 1.101562 0 L 298.894531 0 L 298.894531 134.007812 L 1.101562 134.007812 Z M 1.101562 0 " clip-rule="nonzero"/></clipPath></defs><g clip-path="url(#5b12699dc8)"><path fill="#ffffff" d="M 1.101562 0 L 298.898438 0 L 298.898438 141.453125 L 1.101562 141.453125 Z M 1.101562 0 " fill-opacity="1" fill-rule="nonzero"/><path fill="#ffffff" d="M 1.101562 0 L 298.898438 0 L 298.898438 134.007812 L 1.101562 134.007812 Z M 1.101562 0 " fill-opacity="1" fill-rule="nonzero"/><path fill="#000000" d="M 1.101562 0 L 298.898438 0 L 298.898438 134.007812 L 1.101562 134.007812 Z M 1.101562 0 " fill-opacity="1" fill-rule="nonzero"/><path fill="#ffffff" d="M -5.738281 -1.957031 L 298.378906 -1.957031 L 298.378906 143.410156 L -5.738281 143.410156 L -5.738281 -1.957031 " fill-opacity="1" fill-rule="nonzero"/></g><g fill="#ff0000" fill-opacity="1"><g transform="translate(16.074997, 114.336533)"><g><path d="M 10.859375 0 L 0 0 L 0 -97.890625 L 21.78125 -97.890625 L 21.78125 -86.96875 L 10.859375 -86.96875 L 10.859375 -32.625 L 21.78125 -32.625 L 21.78125 -21.703125 L 10.859375 -21.703125 Z M 10.859375 0 "/></g></g></g><g fill="#ff0000" fill-opacity="1"><g transform="translate(48.706088, 114.336533)"><g><path d="M 10.859375 0 L 0 0 L 0 -97.890625 L 21.78125 -97.890625 L 21.78125 -86.96875 L 10.859375 -86.96875 L 10.859375 -32.625 L 21.78125 -32.625 L 21.78125 -21.703125 L 10.859375 -21.703125 Z M 10.859375 0 "/></g></g></g><g fill="#ff0000" fill-opacity="1"><g transform="translate(81.337178, 114.336533)"><g><path d="M 21.78125 0 L 10.859375 0 L 10.859375 -86.96875 L 0 -86.96875 L 0 -97.890625 L 32.625 -97.890625 L 32.625 -86.96875 L 21.78125 -86.96875 Z M 21.78125 0 "/></g></g></g><g fill="#ff0000" fill-opacity="1"><g transform="translate(124.822679, 114.336533)"><g><path d="M 21.78125 0 L 0 0 L 0 -97.890625 L 21.78125 -97.890625 L 21.78125 -86.96875 L 10.859375 -86.96875 L 10.859375 -32.625 L 21.78125 -32.625 L 21.78125 -21.703125 L 10.859375 -21.703125 L 10.859375 -10.859375 L 21.78125 -10.859375 Z M 21.78125 0 "/></g></g></g><g fill="#ff0000" fill-opacity="1"><g transform="translate(157.453769, 114.336533)"><g><path d="M 32.625 0 L 0 0 L 0 -97.890625 L 32.625 -97.890625 L 32.625 -43.484375 L 21.78125 -43.484375 L 21.78125 -86.96875 L 10.859375 -86.96875 L 10.859375 -10.859375 L 21.78125 -10.859375 L 21.78125 -32.625 L 32.625 -32.625 Z M 32.625 0 "/></g></g></g><g fill="#ff0000" fill-opacity="1"><g transform="translate(200.939271, 114.336533)"><g><path d="M 32.625 0 L 21.78125 0 L 21.78125 -21.703125 L 10.859375 -21.703125 L 10.859375 0 L 0 0 L 0 -97.890625 L 10.859375 -97.890625 L 10.859375 -32.625 L 21.78125 -32.625 L 21.78125 -97.890625 L 32.625 -97.890625 Z M 32.625 0 "/></g></g></g><g fill="#ff0000" fill-opacity="1"><g transform="translate(244.424772, 114.336533)"><g><path d="M 10.859375 0 L 0 0 L 0 -97.890625 L 10.859375 -97.890625 Z M 10.859375 0 "/></g></g></g><g fill="#ff0000" fill-opacity="1"><g transform="translate(266.133598, 114.336533)"><g><path d="M 21.78125 0 L 0 0 L 0 -97.890625 L 21.78125 -97.890625 L 21.78125 -86.96875 L 10.859375 -86.96875 L 10.859375 -32.625 L 21.78125 -32.625 L 21.78125 -21.703125 L 10.859375 -21.703125 L 10.859375 -10.859375 L 21.78125 -10.859375 Z M 21.78125 0 "/></g></g></g></svg>