<svg xmlns="http://www.w3.org/2000/svg" xmlns:xlink="http://www.w3.org/1999/xlink" width="400" zoomAndPan="magnify" viewBox="0 0 300 135.000003" height="180" preserveAspectRatio="xMidYMid meet" version="1.0"><defs><g/></defs><g fill="#ffffff" fill-opacity="1"><g transform="translate(10.787829, 116.181452)"><g><path d="M 11.125 0 L 0 0 L 0 -100.375 L 22.328125 -100.375 L 22.328125 -89.171875 L 11.125 -89.171875 L 11.125 -33.453125 L 22.328125 -33.453125 L 22.328125 -22.265625 L 11.125 -22.265625 Z M 11.125 0 "/></g></g></g><g fill="#ffffff" fill-opacity="1"><g transform="translate(44.242317, 116.181452)"><g><path d="M 11.125 0 L 0 0 L 0 -100.375 L 22.328125 -100.375 L 22.328125 -89.171875 L 11.125 -89.171875 L 11.125 -33.453125 L 22.328125 -33.453125 L 22.328125 -22.265625 L 11.125 -22.265625 Z M 11.125 0 "/></g></g></g><g fill="#ffffff" fill-opacity="1"><g transform="translate(77.696805, 116.181452)"><g><path d="M 22.328125 0 L 11.125 0 L 11.125 -89.171875 L 0 -89.171875 L 0 -100.375 L 33.453125 -100.375 L 33.453125 -89.171875 L 22.328125 -89.171875 Z M 22.328125 0 "/></g></g></g><g fill="#ffffff" fill-opacity="1"><g transform="translate(122.279599, 116.181452)"><g><path d="M 22.328125 0 L 0 0 L 0 -100.375 L 22.328125 -100.375 L 22.328125 -89.171875 L 11.125 -89.171875 L 11.125 -33.453125 L 22.328125 -33.453125 L 22.328125 -22.265625 L 11.125 -22.265625 L 11.125 -11.125 L 22.328125 -11.125 Z M 22.328125 0 "/></g></g></g><g fill="#ffffff" fill-opacity="1"><g transform="translate(155.734087, 116.181452)"><g><path d="M 33.453125 0 L 0 0 L 0 -100.375 L 33.453125 -100.375 L 33.453125 -44.59375 L 22.328125 -44.59375 L 22.328125 -89.171875 L 11.125 -89.171875 L 11.125 -11.125 L 22.328125 -11.125 L 22.328125 -33.453125 L 33.453125 -33.453125 Z M 33.453125 0 "/></g></g></g><g fill="#ffffff" fill-opacity="1"><g transform="translate(200.316882, 116.181452)"><g><path d="M 33.453125 0 L 22.328125 0 L 22.328125 -22.265625 L 11.125 -22.265625 L 11.125 0 L 0 0 L 0 -100.375 L 11.125 -100.375 L 11.125 -33.453125 L 22.328125 -33.453125 L 22.328125 -100.375 L 33.453125 -100.375 Z M 33.453125 0 "/></g></g></g><g fill="#ffffff" fill-opacity="1"><g transform="translate(244.899676, 116.181452)"><g><path d="M 11.125 0 L 0 0 L 0 -100.375 L 11.125 -100.375 Z M 11.125 0 "/></g></g></g><g fill="#ffffff" fill-opacity="1"><g transform="translate(267.156292, 116.181452)"><g><path d="M 22.328125 0 L 0 0 L 0 -100.375 L 22.328125 -100.375 L 22.328125 -89.171875 L 11.125 -89.171875 L 11.125 -33.453125 L 22.328125 -33.453125 L 22.328125 -22.265625 L 11.125 -22.265625 L 11.125 -11.125 L 22.328125 -11.125 Z M 22.328125 0 "/></g></g></g></svg>