<svg xmlns="http://www.w3.org/2000/svg" xmlns:xlink="http://www.w3.org/1999/xlink" width="700" zoomAndPan="magnify" viewBox="0 0 525 149.999998" height="200" preserveAspectRatio="xMidYMid meet" version="1.0"><defs><g/></defs><path fill="#ffffff" d="M 168.085938 29.894531 L 357.105469 29.894531 L 357.105469 120.105469 L 168.085938 120.105469 L 168.085938 29.894531 " fill-opacity="1" fill-rule="nonzero"/><g fill="#ff0000" fill-opacity="1"><g transform="translate(168.035224, 102.063942)"><g/></g></g><g fill="#ff0000" fill-opacity="1"><g transform="translate(181.537522, 102.063942)"><g><path d="M 6.734375 0 L 0 0 L 0 -60.75 L 13.515625 -60.75 L 13.515625 -53.96875 L 6.734375 -53.96875 L 6.734375 -20.25 L 13.515625 -20.25 L 13.515625 -13.46875 L 6.734375 -13.46875 Z M 6.734375 0 "/></g></g></g><g fill="#ff0000" fill-opacity="1"><g transform="translate(201.787869, 102.063942)"><g><path d="M 6.734375 0 L 0 0 L 0 -60.75 L 13.515625 -60.75 L 13.515625 -53.96875 L 6.734375 -53.96875 L 6.734375 -20.25 L 13.515625 -20.25 L 13.515625 -13.46875 L 6.734375 -13.46875 Z M 6.734375 0 "/></g></g></g><g fill="#ff0000" fill-opacity="1"><g transform="translate(222.038216, 102.063942)"><g><path d="M 13.515625 0 L 6.734375 0 L 6.734375 -53.96875 L 0 -53.96875 L 0 -60.75 L 20.25 -60.75 L 20.25 -53.96875 L 13.515625 -53.96875 Z M 13.515625 0 "/></g></g></g><g fill="#ff0000" fill-opacity="1"><g transform="translate(249.024642, 102.063942)"><g><path d="M 13.515625 0 L 0 0 L 0 -60.75 L 13.515625 -60.75 L 13.515625 -53.96875 L 6.734375 -53.96875 L 6.734375 -20.25 L 13.515625 -20.25 L 13.515625 -13.46875 L 6.734375 -13.46875 L 6.734375 -6.734375 L 13.515625 -6.734375 Z M 13.515625 0 "/></g></g></g><g fill="#ff0000" fill-opacity="1"><g transform="translate(269.274989, 102.063942)"><g><path d="M 20.25 0 L 0 0 L 0 -60.75 L 20.25 -60.75 L 20.25 -26.984375 L 13.515625 -26.984375 L 13.515625 -53.96875 L 6.734375 -53.96875 L 6.734375 -6.734375 L 13.515625 -6.734375 L 13.515625 -20.25 L 20.25 -20.25 Z M 20.25 0 "/></g></g></g><g fill="#ff0000" fill-opacity="1"><g transform="translate(296.261415, 102.063942)"><g><path d="M 20.25 0 L 13.515625 0 L 13.515625 -13.46875 L 6.734375 -13.46875 L 6.734375 0 L 0 0 L 0 -60.75 L 6.734375 -60.75 L 6.734375 -20.25 L 13.515625 -20.25 L 13.515625 -60.75 L 20.25 -60.75 Z M 20.25 0 "/></g></g></g><g fill="#ff0000" fill-opacity="1"><g transform="translate(323.247841, 102.063942)"><g><path d="M 6.734375 0 L 0 0 L 0 -60.75 L 6.734375 -60.75 Z M 6.734375 0 "/></g></g></g><g fill="#ff0000" fill-opacity="1"><g transform="translate(336.72, 102.063942)"><g><path d="M 13.515625 0 L 0 0 L 0 -60.75 L 13.515625 -60.75 L 13.515625 -53.96875 L 6.734375 -53.96875 L 6.734375 -20.25 L 13.515625 -20.25 L 13.515625 -13.46875 L 6.734375 -13.46875 L 6.734375 -6.734375 L 13.515625 -6.734375 Z M 13.515625 0 "/></g></g></g></svg>